<?xml version="1.0" encoding="utf-8"?>
<svg id="master-artboard" viewBox="0 0 685 985" version="1.1" xmlns="http://www.w3.org/2000/svg" x="0px" y="0px" style="enable-background:new 0 0 336 235.2;" width="685px" height="985px"><rect id="ee-background" x="0" y="0" width="685" height="985" style="fill: white; fill-opacity: 0; pointer-events: none;"/><defs><style id="ee-google-fonts">@import url(https://fonts.googleapis.com/css?family=Audiowide:400);</style></defs>





















































































































































<linearGradient id="gradient-1" gradientUnits="userSpaceOnUse" x1="0" y1="258" x2="512" y2="258" gradientTransform="matrix(1 0 0 -1 0 514)">
	<stop offset="0" style="stop-color:#00F2FE"/>
	<stop offset="0.021" style="stop-color:#03EFFE"/>
	<stop offset="0.293" style="stop-color:#24D2FE"/>
	<stop offset="0.554" style="stop-color:#3CBDFE"/>
	<stop offset="0.796" style="stop-color:#4AB0FE"/>
	<stop offset="1" style="stop-color:#4FACFE"/>
</linearGradient><linearGradient id="SVGID_1_" gradientUnits="userSpaceOnUse" x1="79" y1="258" x2="433" y2="258" gradientTransform="matrix(1 0 0 -1 0 514)">
	<stop offset="0" style="stop-color:#00F2FE"/>
	<stop offset="0.021" style="stop-color:#03EFFE"/>
	<stop offset="0.293" style="stop-color:#24D2FE"/>
	<stop offset="0.554" style="stop-color:#3CBDFE"/>
	<stop offset="0.796" style="stop-color:#4AB0FE"/>
	<stop offset="1" style="stop-color:#4FACFE"/>
</linearGradient><linearGradient id="gradient-2" gradientUnits="userSpaceOnUse" x1="37" y1="258" x2="475" y2="258" gradientTransform="matrix(1 0 0 -1 0 514)">
	<stop offset="0" style="stop-color:#00F2FE"/>
	<stop offset="0.021" style="stop-color:#03EFFE"/>
	<stop offset="0.293" style="stop-color:#24D2FE"/>
	<stop offset="0.554" style="stop-color:#3CBDFE"/>
	<stop offset="0.796" style="stop-color:#4AB0FE"/>
	<stop offset="1" style="stop-color:#4FACFE"/>
</linearGradient><g transform="matrix(1.5111110210418701, 0, 0, 2.2272729873657227, -724.4832763671875, -609.1114501953125)"><g transform="matrix(1, 0, 0, 1, 0, 0)"><g transform="matrix(1, 0, 0, 1, 0, 0)"><g transform="matrix(1, 0, 0, 1, 0, 0)"><g transform="matrix(1, 0, 0, 1, 0, 0)"><g transform="matrix(1, 0, 0, 1, 0, 0)"><g transform="matrix(1, 0, 0, 1, 0, 0)"><g transform="matrix(1, 0, 0, 1, 0, 0)"><g transform="matrix(1, 0, 0, 1, 0, 0)"><g transform="matrix(1, 0, 0, 1, 0, 0)"><g transform="matrix(1, 0, 0, 1, 0, 0)"><g transform="matrix(1, 0, 0, 1, 0, 0)"><g transform="matrix(1, 0, 0, 1, 0, 0)"><g transform="matrix(1, 0, 0, 1, 0, 0)"><g transform="matrix(1, 0, 0, 1, 0, 0)"><g transform="matrix(1, 0, 0, 1, 0, 0)"><g transform="matrix(1, 0, 0, 1, 0, 0)"><g transform="matrix(1, 0, 0, 1, 0, 0)"><g transform="matrix(1, 0, 0, 1, 0, 0)"><g transform="matrix(1, 0, 0, 1, 0, 0)"><g transform="matrix(1, 0, 0, 1, 0, 0)"><g transform="matrix(1, 0, 0, 1, 0, 0)"><g transform="matrix(1, 0, 0, 1, 0, 0)"><g transform="matrix(1, 0, 0, 1, 0, 0)"><g transform="matrix(1, 0, 0, 1, 0, 0)"><g transform="matrix(1, 0, 0, 1, 0, 0)"><g transform="matrix(1, 0, 0, 1, 0, 0)"><g transform="matrix(1, 0, 0, 1, 0, 0)"><g transform="matrix(1, 0, 0, 1, 0, 0)"><g transform="matrix(1, 0, 0, 1, 0, 0)"><g transform="matrix(1, 0, 0, 1, 0, 0)"><g transform="matrix(1, 0, 0, 1, 0, 0)"><g transform="matrix(1, 0, 0, 1, 0, 0)"><g transform="matrix(1, 0, 0, 1, 0, 0)"><g transform="matrix(1, 0, 0, 1, 0, 0)"><g transform="matrix(1, 0, 0, 1, 0, 0)"><g transform="matrix(1, 0, 0, 1, 0, 0)"><g transform="matrix(1, 0, 0, 1, 0, 0)"><g transform="matrix(1, 0, 0, 1, 0, 0)"><g transform="matrix(1, 0, 0, 1, 0, 0)"><g transform="matrix(1, 0, 0, 1, 0, 0)"><path style="fill: url('#gradient-2');" d="M395,512H117c-44.112,0-80-35.888-80-80V80c0-44.112,35.888-80,80-80h278&#10;&#9;c44.112,0,80,35.888,80,80v252c0,11.046-8.954,20-20,20s-20-8.954-20-20V80c0-22.056-17.944-40-40-40H117c-22.056,0-40,17.944-40,40&#10;&#9;v352c0,22.056,17.944,40,40,40h278c22.056,0,40-17.944,40-40c0-11.046,8.954-20,20-20s20,8.954,20,20&#10;&#9;C475,476.112,439.112,512,395,512z M395,412c0-11.046-8.954-20-20-20h-80c-11.046,0-20,8.954-20,20s8.954,20,20,20h80&#10;&#9;C386.046,432,395,423.046,395,412z M158.08,260L158.08,260c0-11.046-10.034-20-21.08-20l0,0c-11.046,0-20,8.954-20,20l0,0&#10;&#9;c0,11.046,8.954,20,20,20l0,0C148.046,280,158.08,271.046,158.08,260z M237,260L237,260c0-11.046-8.954-20-20-20l0,0&#10;&#9;c-11.046,0-20,8.954-20,20l0,0c0,11.046,8.954,20,20,20l0,0C228.046,280,237,271.046,237,260z M316,260L316,260&#10;&#9;c0-11.046-8.954-20-20-20l0,0c-11.046,0-20,8.954-20,20l0,0c0,11.046,8.954,20,20,20l0,0C307.046,280,316,271.046,316,260z M158,336&#10;&#9;L158,336c0-11.046-9.954-20-21-20l0,0c-11.046,0-20,8.954-20,20l0,0c0,11.046,8.954,20,20,20l0,0C148.046,356,158,347.046,158,336z&#10;&#9; M237,336L237,336c0-11.046-8.954-20-20-20l0,0c-11.046,0-20,8.954-20,20l0,0c0,11.046,8.954,20,20,20l0,0&#10;&#9;C228.046,356,237,347.046,237,336z M316,336L316,336c0-11.046-8.954-20-20-20l0,0c-11.046,0-20,8.954-20,20l0,0&#10;&#9;c0,11.046,8.954,20,20,20l0,0C307.046,356,316,347.046,316,336z M395,260L395,260c0-11.046-8.954-20-20-20l0,0&#10;&#9;c-11.046,0-20,8.954-20,20l0,0c0,11.046,8.954,20,20,20l0,0C386.046,280,395,271.046,395,260z M157,412L157,412&#10;&#9;c0-11.046-8.954-20-20-20l0,0c-11.046,0-20,8.954-20,20l0,0c0,11.046,8.954,20,20,20l0,0C148.046,432,157,423.046,157,412z M395,336&#10;&#9;L395,336c0-11.046-8.954-20-20-20l0,0c-11.046,0-20,8.954-20,20l0,0c0,11.046,8.954,20,20,20l0,0C386.046,356,395,347.046,395,336z&#10;&#9; M236,412L236,412c0-11.046-8.954-20-20-20l0,0c-11.046,0-20,8.954-20,20l0,0c0,11.046,8.954,20,20,20l0,0&#10;&#9;C227.046,432,236,423.046,236,412z M395,180v-80c0-11.046-8.954-20-20-20H137c-11.046,0-20,8.954-20,20v80c0,11.046,8.954,20,20,20&#10;&#9;h238C386.046,200,395,191.046,395,180z M157,120h198v40H157V120z" transform="matrix(0.4109588861465454, 0, 0, 0.41004127264022827, 734.0980224609375, 504.6701354980469)"/><path style="fill: url('#gradient-1');" d="M 145 210 C 145 221.046 136.046 230 125 230 C 113.95400000000001 230 105 221.046 105 210 L 105 210 C 105 198.954 113.95400000000001 190 125 190 C 136.046 190 145 198.954 145 210 L 145 210 Z M 319 210 L 319 210 C 319 198.954 310.046 190 299 190 C 287.954 190 279 198.954 279 210 L 279 210 C 279 221.046 287.954 230 299 230 C 310.046 230 319 221.046 319 210 Z M 406 210 L 406 210 C 406 198.954 397.046 190 386 190 C 374.954 190 366 198.954 366 210 L 366 210 C 366 221.046 374.954 230 386 230 C 397.046 230 406 221.046 406 210 Z M 145 297 C 145 285.954 136.046 277 125 277 C 113.95400000000001 277 105 285.954 105 297 L 105 297 C 105 308.046 113.95400000000001 317 125 317 C 136.046 317 145 308.046 145 297 L 145 297 Z M 125 364 C 113.95400000000001 364 105 372.954 105 384 L 105 384 C 105 395.046 113.95400000000001 404 125 404 C 136.046 404 145 395.046 145 384 L 145 384 C 145 372.954 136.046 364 125 364 Z M 232 210 C 232 198.954 223.046 190 212 190 C 200.954 190 192 198.954 192 210 L 192 210 C 192 221.046 200.954 230 212 230 C 223.046 230 232 221.046 232 210 L 232 210 Z M 232 297 C 232 285.954 223.046 277 212 277 C 200.954 277 192 285.954 192 297 L 192 297 C 192 308.046 200.954 317 212 317 C 223.046 317 232 308.046 232 297 L 232 297 Z M 212 364 C 200.954 364 192 372.954 192 384 L 192 384 C 192 395.046 200.954 404 212 404 C 223.046 404 232 395.046 232 384 L 232 384 C 232 372.954 223.046 364 212 364 Z M 432 40 L 406 40 L 406 20 C 406 8.954 397.046 0 386 0 C 374.954 0 366 8.954 366 20 L 366 40 L 275 40 L 275 20 C 275 8.954 266.046 0 255 0 C 243.954 0 235 8.954 235 20 L 235 40 L 145 40 L 145 20 C 145 8.954 136.046 0 125 0 C 113.95400000000001 0 105 8.954 105 20 L 105 40 L 80 40 C 35.888 40 0 75.888 0 120 L 0 432 C 0 476.112 35.888 512 80 512 L 233 512 C 244.046 512 253 503.046 253 492 C 253 480.954 244.046 472 233 472 L 80 472 C 57.944 472 40 454.056 40 432 L 40 120 C 40 97.944 57.944 80 80 80 L 105 80 L 105 100 C 105 111.04599999999999 113.95400000000001 120 125 120 C 136.046 120 145 111.04599999999999 145 100 L 145 80 L 235 80 L 235 100 C 235 111.04599999999999 243.954 120 255 120 C 266.046 120 275 111.04599999999999 275 100 L 275 80 L 366 80 L 366 100 C 366 111.04599999999999 374.954 120 386 120 C 397.046 120 406 111.04599999999999 406 100 L 406 80 L 432 80 C 454.056 80 472 97.944 472 120 L 472 234 C 472 245.046 480.954 254 492 254 C 503.046 254 512 245.046 512 234 L 512 120 C 512 75.888 476.112 40 432 40 Z" transform="matrix(0.87890625, 0, 0, 0.8591342568397522, 481.08236694335943, 274.6112976074219)"/></g></g></g></g></g></g></g></g></g></g></g></g></g></g></g></g></g></g></g></g></g></g></g></g></g></g></g></g></g></g></g></g></g></g></g></g></g></g></g></g></g></svg>